<?xml version="1.0" encoding="UTF-8" standalone="no"?>
<!-- Created with Inkscape (http://www.inkscape.org/) -->

<!-- This logo was designed by FLARE145 (http://flare145.com/) -->

<svg
   width="10in"
   height="6.0608735in"
   viewBox="0 0 254.00001 153.94619"
   version="1.1"
   id="svg1"
   inkscape:version="1.3.2 (091e20e, 2023-11-25, custom)"
   sodipodi:docname="kiwifruitDevLogo.svg"
   xmlns:inkscape="http://www.inkscape.org/namespaces/inkscape"
   xmlns:sodipodi="http://sodipodi.sourceforge.net/DTD/sodipodi-0.dtd"
   xmlns:xlink="http://www.w3.org/1999/xlink"
   xmlns="http://www.w3.org/2000/svg"
   xmlns:svg="http://www.w3.org/2000/svg"
   xmlns:rdf="http://www.w3.org/1999/02/22-rdf-syntax-ns#"
   xmlns:cc="http://creativecommons.org/ns#"
   xmlns:dc="http://purl.org/dc/elements/1.1/">
  <title
     id="title1">KiwifruitDevLogo</title>
  <sodipodi:namedview
     id="namedview1"
     pagecolor="#ffffff"
     bordercolor="#000000"
     borderopacity="0.25"
     inkscape:showpageshadow="2"
     inkscape:pageopacity="0.0"
     inkscape:pagecheckerboard="0"
     inkscape:deskcolor="#d1d1d1"
     inkscape:document-units="mm"
     inkscape:zoom="0.73139029"
     inkscape:cx="503.15133"
     inkscape:cy="186.63086"
     inkscape:window-width="1920"
     inkscape:window-height="1017"
     inkscape:window-x="1912"
     inkscape:window-y="-8"
     inkscape:window-maximized="1"
     inkscape:current-layer="layer1"
     showgrid="false" />
  <defs
     id="defs1">
    <linearGradient
       inkscape:collect="always"
       xlink:href="#linearGradient68"
       id="linearGradient53"
       x1="340.08536"
       y1="185.58263"
       x2="340.08536"
       y2="121.51949"
       gradientUnits="userSpaceOnUse"
       gradientTransform="translate(-279.82377,-49.949679)" />
    <linearGradient
       id="linearGradient68"
       inkscape:collect="always">
      <stop
         style="stop-color:#ff981e;stop-opacity:1;"
         offset="0"
         id="stop67" />
      <stop
         style="stop-color:#ffd622;stop-opacity:1;"
         offset="1"
         id="stop68" />
    </linearGradient>
    <linearGradient
       inkscape:collect="always"
       xlink:href="#linearGradient23"
       id="linearGradient55"
       x1="363.07297"
       y1="163.96216"
       x2="363.07297"
       y2="135.8371"
       gradientUnits="userSpaceOnUse"
       gradientTransform="translate(-279.82377,-49.949679)" />
    <linearGradient
       id="linearGradient23"
       inkscape:collect="always">
      <stop
         style="stop-color:#a5c01b;stop-opacity:1;"
         offset="0"
         id="stop22" />
      <stop
         style="stop-color:#98d36b;stop-opacity:1;"
         offset="1"
         id="stop23" />
    </linearGradient>
    <linearGradient
       inkscape:collect="always"
       xlink:href="#linearGradient28"
       id="linearGradient57"
       x1="377.37091"
       y1="173.61212"
       x2="377.37091"
       y2="158.12367"
       gradientUnits="userSpaceOnUse"
       gradientTransform="translate(-279.82377,-49.949679)" />
    <linearGradient
       id="linearGradient28"
       inkscape:collect="always">
      <stop
         style="stop-color:#2bac9f;stop-opacity:1;"
         offset="0"
         id="stop27" />
      <stop
         style="stop-color:#98d36b;stop-opacity:1;"
         offset="1"
         id="stop28" />
    </linearGradient>
  </defs>
  <g
     inkscape:label="Layer 1"
     inkscape:groupmode="layer"
     id="layer1"
     transform="translate(-31.743501,-67.484994)">
    <g
       id="g1"
       transform="matrix(2.0987167,0,0,2.0987167,-34.877111,-74.146883)">
      <path
         id="path44"
         style="color:#000000;fill:#98d36b;fill-opacity:1;stroke-linecap:square;stroke-linejoin:round;-inkscape-stroke:none;paint-order:stroke fill markers"
         d="m 152.39552,106.61105 c 0.49598,-1.34318 0.63827,-3.45472 -0.45527,-5.09788 -0.10696,-0.16072 -0.19645,-0.24335 -0.28422,-0.31471 0.11911,-0.30603 0.21058,-0.63181 0.28267,-0.98237 0.58085,-1.222506 0.96307,-2.969556 0.25579,-4.705646 -0.72996,-1.79182 -2.26904,-2.78009 -3.54707,-3.252 -0.63426,-0.23419 -1.36232,-0.41223 -2.18126,-0.42375 h -0.002 c -0.62354,-0.009 -1.20907,0.20766 -1.78542,0.416 -0.0287,-0.0956 -0.004,-0.11061 -0.0837,-0.2403 -0.9374,-1.52543 -2.40442,-2.37768 -3.75791,-2.76934 -0.51644,-0.14952 -1.06488,-0.24648 -1.64073,-0.26923 -2.54289,-0.10051 -5.29749,1.83621 -6.14433,4.44882 -1.00835,-0.13458 -2.14112,-0.002 -3.22461,0.4532 -1.44925,-1.67421 -3.01607,-2.01417 -3.26788,-2.05667 -0.25181,-0.0425 -1.02142,-0.21199 -1.53479,-0.17157 -1.25317,-1.1633 -2.91871,-1.54133 -4.58009,-1.65209 -0.51622,-0.0255 -0.9629,0.0622 -1.418,0.13281 -0.10284,-2.40766 -1.10869,-4.65149 -2.73833,-6.10351 -2.38271,-2.12299 -5.46656,-2.22122 -5.93401,-2.22359 -2.53747,-0.0114 -4.98845,1.35891 -6.77736,3.43545 -1.52857,-0.88223 -2.56213,-1.05012 -3.53463,-0.99426 -1.434629,0.0736 -3.031619,0.60127 -4.263819,1.8495 -0.23864,0.26068 -0.24823,0.29577 -0.30076,0.36329 0.2826,-1.50651 0.27712,-3.5543 -1.11724,-5.33818 -1.56282,-1.9995 -3.80968,-2.39139 -5.49011,-2.38073 0.004,10e-6 0.003,-1.5e-4 -0.006,0 -0.56845,0.003 -1.11452,0.056 -1.64072,0.13901 -2.08516,0.32873 -4.12647,1.15119 -5.94899,2.4138 -0.59449,-1.99197 -1.79641,-4.24015 -4.39664,-5.30872 -0.86254,-0.35446 -1.77126,-0.54178 -2.64066,-0.56844 -0.29084,-0.009 -0.58721,-4e-4 -0.88263,0.0258 -1.38402,0.12476 -2.46025,0.59863 -3.41013,1.15239 -0.28121,-1.19457 -0.64076,-2.36412 -1.16221,-3.41995 -0.58564,-1.18579 -1.23515,-2.44379 -2.23035,-3.49023 -0.99521,-1.04643 -2.35042,-1.86404 -4.23643,-2.13682 -0.25133,-0.0363 -0.51167,-0.0551 -0.7767,-0.0558 l -6.4e-4,-3.2e-4 c -0.47432,-0.001 -0.72143,0.0361 -0.86964,0.0542 -2.24752,0.32227 -3.67122,1.80521 -4.50619,3.0918 -0.83187,1.28185 -1.30222,2.64546 -1.60352,4.05092 -0.28781,1.34249 -0.31982,2.77201 -0.23409,4.20491 -0.17062,-0.0593 -0.30087,-0.12167 -0.51573,-0.16433 -1.91308,-0.37988 -4.43799,-0.0341 -6.34174,1.46709 -1.90298,1.50062 -2.83089,3.86895 -2.9161,5.81464 -0.01,0.21674 0.0203,0.35587 0.0372,0.53485 -1.1784,-0.36311 -2.37224,-0.65882 -3.55844,-0.73433 -0.44549,-0.0284 -0.89171,-0.0368 -1.3379,-0.0253 h -0.004 c -0.005,-6e-5 -0.009,-6e-5 -0.0139,0 -0.44376,0.0124 -0.89248,0.0444 -1.34565,0.10336 -1.0593,0.13696 -2.28425,0.3796 -3.41995,0.99012 -1.13571,0.61052 -2.17503,1.60735 -2.79673,3.16208 -1.09946,2.7494 0.58536,6.27877 0.86145,6.8249 0.6553,1.29624 1.55252,2.33998 2.58589,3.278866 0.74928,0.68079 1.58043,1.29642 2.47478,1.82935 -1.12851,1.47675 -1.92254,3.64048 -1.60765,5.85029 0.0169,0.11852 0.61994,4.22604 3.41994,6.33863 -0.79104,0.79611 -1.52979,1.62989 -2.09393,2.55023 -0.75107,1.22533 -1.34926,2.5398 -1.6309,4.0411 -0.65231,3.47722 1.41051,6.51258 1.51205,6.64249 1.28112,1.63905 3.1032,2.09901 4.55476,2.17764 1.45155,0.0786 2.80296,-0.17978 4.13101,-0.60926 1.45049,-0.46907 2.87407,-1.14916 4.15996,-2.08825 l 0.31264,1.0511 c 0.51383,1.72752 2.06209,3.62711 4.14238,4.46484 2.0802,0.83767 4.48392,0.47771 6.08232,-0.35708 0.34617,-0.18081 0.59429,-0.40365 0.89452,-0.60565 0.0199,0.0738 0.0413,0.14669 0.062,0.22014 0.28928,1.51514 0.83046,2.94568 1.53169,4.24832 0.66209,1.22992 1.45819,2.35198 2.5585,3.30109 1.1003,0.94911 2.73238,1.88409 4.79712,1.58802 2.06471,-0.29606 3.36503,-1.64903 4.15582,-2.86752 0.65397,-1.00768 1.14088,-2.26707 1.4308,-3.18431 0.28991,-0.91724 0.43187,-1.45793 0.59285,-2.20865 0.21423,-0.99908 0.25729,-2.05082 0.24443,-3.11144 0.1937,0.0707 0.3784,0.1492 0.60306,0.19379 1.76901,0.35111 4.17538,0.0191 5.93556,-1.36891 0.0118,-0.01 0.0234,-0.0197 0.0351,-0.0294 0.14062,-0.11383 0.21422,-0.25687 0.3421,-0.37672 1.03466,0.76895 2.34403,1.17109 3.67987,0.99012 l 3.86282,-0.52349 c 1.83231,-0.24823 3.48711,-1.05107 4.98832,-2.08411 0.93197,0.98278 2.22004,1.62358 3.636989,1.62523 0.071,1.1e-4 0.14202,-0.002 0.21291,-0.006 2.71052,-0.1566 5.40379,-0.18156 8.10545,0.004 0.0806,0.005 0.16104,0.008 0.24184,0.008 1.51863,10e-4 2.86498,-0.75314 3.807,-1.85932 0.79894,1.25663 1.99452,2.26988 3.33779,2.50786 0.0416,0.007 0.0833,0.0138 0.12505,0.0196 l 0.63252,0.0899 c 1.94024,0.2738 3.93251,-0.55136 5.0276,-2.37505 l -0.0548,0.0879 6.81664,-10.63863 c 0.0126,-0.0194 0.0245,-0.0387 0.0367,-0.0584 0.15799,-0.25731 0.27131,-0.52976 0.37424,-0.8041 0.24313,-0.64801 0.49651,-1.28319 0.61898,-2.08202 0.48099,0.002 0.97248,0.0311 1.39372,-0.0631 0.85501,1.03762 1.91513,1.67593 2.92592,1.96836 0.89332,0.25852 1.9537,0.27271 3.06234,0.0258 0.98664,1.59928 2.64114,2.80578 4.44159,3.47059 1.18355,0.43698 2.7013,0.65934 4.21473,0.0548 1.51342,-0.60458 2.62188,-1.96944 3.03341,-3.23443 l 0.4687,-1.44074 c 0.25323,-0.77839 0.25651,-1.62704 0.10077,-2.46134 1.34243,-0.65383 2.26122,-1.98468 2.6355,-2.99827"
         sodipodi:nodetypes="csccsssscssscczcscscccccsccccscccssssccsscssccscsccsssscscssssscsssccsssszscsccccccscccccccccccsccscsssscc" />
      <path
         style="color:#000000;fill:#ffffff;fill-opacity:1;stroke-linecap:square;stroke-linejoin:round;-inkscape-stroke:none;paint-order:stroke fill markers"
         d="m 60.739041,68.033074 c -2.06461,0.29604 -3.36548,1.65064 -4.15625,2.86914 -0.79077,1.21851 -1.24231,2.51873 -1.53516,3.88477 -0.32779,1.52899 -0.45387,3.14342 -0.26758,4.76758 -0.35847,-0.11332 -0.67056,-0.26281 -1.06836,-0.3418 -1.76902,-0.35127 -4.17528,-0.0189 -5.93554,1.36914 -1.76028,1.38808 -2.64575,3.6429 -2.72461,5.44336 -0.018,0.40984 0.0546,0.75333 0.0801,1.13281 -1.35329,-0.49506 -2.75182,-0.7656 -4.13281,-0.85351 -0.4359,-0.0278 -0.87185,-0.037 -1.30664,-0.0254 h -0.004 c -0.42899,0.012 -0.86048,0.0431 -1.29493,0.0996 -2.06441,0.2669 -4.65859,0.94637 -5.8164,3.84179 -0.77154,1.92934 -0.25882,3.72915 0.39648,5.02539 0.6553,1.29624 1.55257,2.34041 2.58594,3.2793 1.15819,1.05231 2.49344,1.971356 3.99414,2.623046 -0.28538,0.26106 -0.57892,0.46423 -0.85352,0.77929 -1.18445,1.35902 -2.09523,3.60313 -1.77929,5.82032 0.31593,2.21713 1.8192,4.11968 3.33789,5.09179 0.34428,0.22038 0.67597,0.32846 1.01562,0.4961 -1.25558,1.04571 -2.27878,2.30006 -3.0957,3.63281 -0.72989,1.19076 -1.29865,2.44378 -1.56641,3.87109 -0.26775,1.42732 -0.25961,3.29849 1.02149,4.9375 1.28112,1.63906 3.10313,2.09911 4.55469,2.17774 1.45155,0.0786 2.8028,-0.1799 4.13085,-0.60938 1.47789,-0.47793 2.92961,-1.17173 4.23438,-2.13867 0.0814,0.36893 0.10743,0.71584 0.23828,1.10156 0.579,1.70678 2.06229,3.62712 4.14258,4.46485 2.0802,0.83767 4.48363,0.47737 6.08203,-0.35742 0.35072,-0.18318 0.60066,-0.4092 0.90625,-0.61329 0.27594,1.60101 0.8453,3.10798 1.58203,4.47657 0.66209,1.22992 1.45829,2.35167 2.5586,3.30078 1.1003,0.94911 2.73213,1.88396 4.79687,1.58789 2.06471,-0.29606 3.36546,-1.64869 4.15625,-2.86719 0.79079,-1.2185 1.24223,-2.51869 1.53516,-3.88476 0.328,-1.52964 0.45219,-3.14465 0.26562,-4.76954 0.35918,0.1136 0.67165,0.26463 1.07031,0.34375 1.76901,0.35111 4.17537,0.0189 5.93555,-1.36914 0.0118,-0.01 0.0235,-0.0195 0.0352,-0.0293 0.14062,-0.11383 0.21392,-0.25711 0.3418,-0.37696 1.03467,0.76895 2.34383,1.17121 3.67968,0.99024 l 3.86329,-0.52344 c 1.83231,-0.24823 3.48707,-1.05094 4.98828,-2.08398 0.93197,0.98278 2.21977,1.62335 3.636719,1.625 0.071,1.1e-4 0.142,-0.002 0.21289,-0.006 2.71053,-0.1566 5.4038,-0.18169 8.10546,0.004 0.0806,0.005 0.16139,0.008 0.24219,0.008 1.51863,0.001 2.86461,-0.7532 3.80664,-1.85938 0.79894,1.25663 1.99462,2.26983 3.33789,2.50781 0.0416,0.007 0.0832,0.0137 0.125,0.0195 l 0.63282,0.0899 c 1.94024,0.27381 3.93225,-0.5513 5.02734,-2.375 l -0.0547,0.0879 6.81641,-10.63867 c 0.0126,-0.0194 0.0249,-0.0389 0.0371,-0.0586 0.53538,-0.87197 0.6931,-1.87431 0.65234,-2.88672 0.58121,-0.0294 1.21347,0.0539 1.73438,-0.0625 0.85501,1.03762 1.91499,1.67632 2.92578,1.96875 0.89332,0.25852 1.95386,0.27228 3.0625,0.0254 0.98664,1.59928 2.64095,2.8059 4.4414,3.47071 1.18355,0.43698 2.70142,0.65926 4.21485,0.0547 1.51342,-0.60458 2.57241,-1.98649 3.0332,-3.23438 0.38527,-1.04351 0.14912,-2.49737 -0.26758,-3.64648 0.0906,-0.0226 0.15074,0.007 0.24414,-0.0215 1.66584,-0.50518 2.80141,-2.07575 3.22852,-3.23242 0.44391,-1.20217 0.5637,-3.19489 -0.40235,-4.64648 -0.19185,-0.28829 -0.41006,-0.39257 -0.61523,-0.60743 l 0.52734,-1.05078 v -0.002 c 0.56696,-1.130426 0.95559,-2.807986 0.29493,-4.429686 -0.66096,-1.62242 -2.07049,-2.53423 -3.25782,-2.97265 -0.595,-0.21969 -1.26451,-0.38201 -2.01562,-0.39258 h -0.002 c -0.70111,-0.01 -1.42484,0.2027 -2.10351,0.49804 -0.0824,-0.17998 -0.0798,-0.39164 -0.18359,-0.56054 -0.8588,-1.39754 -2.21039,-2.18608 -3.47071,-2.55078 -0.48121,-0.13932 -0.98908,-0.22896 -1.52148,-0.25 -2.30742,-0.0912 -5.01821,1.80772 -5.72266,4.24218 -0.0179,0.062 -0.0142,0.1505 -0.0312,0.21485 -1.06402,-0.24505 -2.49665,-0.10541 -3.72461,0.49804 -0.83339,-1.08473 -2.0658,-1.85873 -3.13672,-2.10937 h -0.002 c -0.57537,-0.11902 -1.17503,-0.24305 -1.75976,-0.13674 -0.94175,-1.28703 -2.90017,-1.58958 -4.38086,-1.6875 -0.67493,-0.0334 -1.29239,0.0542 -1.88672,0.17773 -0.004,-0.0515 0.0431,-0.3072 0.041,-0.32421 -0.0433,-2.35526 -1.05288,-4.55737 -2.61718,-5.95118 -2.24799,-2.00297 -5.16367,-2.09562 -5.60354,-2.09789 v 0 c -2.4684,-0.0111 -4.94645,1.34307 -6.66601,3.48242 -1.17324,-0.76637 -2.37678,-1.11105 -3.61717,-1.04097 -1.332109,0.068 -2.805509,0.55645 -3.935539,1.70118 -0.76104,0.79925 -1.43886,2.33209 -1.55604,2.21154 -0.11718,-0.12055 0.0814,-0.81169 0.40758,-2.29162 0.26775,-1.42732 0.2616,-3.29849 -1.01953,-4.9375 -1.44037,-1.84284 -3.49018,-2.19964 -5.09375,-2.18946 -5.9e-4,1e-5 -0.001,0 -0.002,0 -0.54093,0.003 -1.06126,0.0529 -1.56836,0.13282 -2.20753,0.34803 -4.39172,1.19293 -6.25781,2.62109 -0.48449,-2.01806 -1.69485,-4.45348 -4.35547,-5.54687 -0.80513,-0.33086 -1.65897,-0.50647 -2.4668,-0.53125 -0.2724,-0.008 -0.54783,-0.001 -0.82226,0.0234 -1.54755,0.13951 -2.71867,0.69548 -3.73633,1.36524 -0.25475,-1.38416 -0.73067,-2.69453 -1.33008,-3.9082 -1.16447,-2.35779 -2.52475,-4.83789 -6.08984,-5.35352 -0.47708,-0.0689 -0.98846,-0.0766 -1.5,-0.004 h -0.004 z"
         id="path46"
         sodipodi:nodetypes="csscsssccccccsscssscssssscssscssssscsccccccscccccccccccccccsscccsscccsssscscsccccccsccsccccczccscccscccscccc" />
      <path
         id="path47"
         style="fill:url(#linearGradient53);fill-opacity:1;stroke:none;stroke-width:1.177;stroke-linecap:square;stroke-linejoin:round;stroke-dasharray:none;paint-order:stroke fill markers"
         inkscape:transform-center-x="-0.39677455"
         inkscape:transform-center-y="0.067332619"
         d="m 61.729561,71.588044 c -0.16205,-0.0234 -0.32332,-0.0245 -0.48186,-0.002 -2.53662,0.36373 -3.91975,6.81698 -2.16128,10.08301 1.75845,3.26601 6.26819,2.61939 7.04636,-1.01034 0.72955,-3.4029 -1.9725,-8.71928 -4.40321,-9.07084 z m 12.38206,7.90773 c -0.13028,-0.004 -0.25928,1.2e-4 -0.38706,0.0117 -3.57749,0.32082 -6.18735,6.45821 -10.35281,7.05693 -4.76051,0.68407 -9.59209,-6.1474 -13.37426,-3.16493 -3.78216,2.98244 1.68333,9.3143 -0.10711,13.79585 -1.79039,4.481516 -10.0982,5.266656 -9.41711,10.046466 0.68109,4.77977 8.8745,3.1927 11.84458,6.99002 2.97012,3.79729 -0.50677,11.41464 3.95652,13.212 4.46328,1.79731 7.19177,-6.12035 11.95229,-6.80458 4.76054,-0.68409 9.59212,6.14616 13.37429,3.1637 2.46265,-1.99344 1.38397,-6.53843 0.49094,-8.50734 -0.89304,-1.96892 -2.08849,-3.02718 -2.99891,-2.90299 -0.91042,0.12419 -1.44485,0.4022 -1.54141,1.70623 -0.0967,1.30404 0.53325,2.30331 -0.87293,3.41216 -2.60422,2.05355 -5.92993,-2.65006 -9.20777,-2.17891 -3.27782,0.47093 -5.15603,5.92298 -8.22918,4.68543 -3.07317,-1.23755 -0.67932,-6.48119 -2.72437,-9.0958 -2.04503,-2.6146 -7.68731,-1.52263 -8.15626,-4.81371 -0.46897,-3.29112 5.25184,-3.83173 6.48462,-6.917466 1.23276,-3.08571 -2.53011,-7.44558 0.0741,-9.49912 2.60419,-2.05355 5.92996,2.65002 9.20776,2.1789 2.86788,-0.41215 4.66486,-4.63712 7.12781,-4.85864 l 6.2e-4,1e-5 c 0.35155,-0.0324 0.71808,0.0183 1.10201,0.17262 0.72851,0.29338 0.68454,1.02377 1.38956,1.47229 0.705,0.44852 1.66166,0.64255 2.52957,0.28252 0.86792,-0.36002 1.09389,-0.82624 1.37913,-2.19815 0.28525,-1.37192 0.74662,-5.7159 -2.33222,-6.98116 -0.41722,-0.17145 -0.82155,-0.25202 -1.21243,-0.26401 z m 14.78217,3.32616 c -0.32812,0.002 -0.67485,0.0332 -1.03331,0.0897 -2.38975,0.37676 -5.28871,1.90946 -6.49989,3.88586 -1.9379,3.16227 0.87388,6.75876 4.39357,5.62029 3.51979,-1.13846 6.96556,-6.75969 5.38368,-8.78348 -0.44489,-0.5692 -1.25961,-0.81878 -2.24405,-0.81236 z m -48.12309,7.06407 c -0.66499,-0.0424 -1.31519,-0.0259 -1.91503,0.0522 -1.43954,0.18598 -2.58857,0.71981 -2.9466,1.61516 -0.95477,2.38753 3.91962,6.81609 7.61598,6.91982 3.69634,0.10417 5.39377,-4.13999 2.65219,-6.63126 -1.28512,-1.16779 -3.41157,-1.82896 -5.40654,-1.95596 z m 6.31396,24.684446 c -0.19271,0.004 -0.3894,0.022 -0.58953,0.0551 -0.21352,0.035 -0.43148,0.0879 -0.65145,0.159 -3.51978,1.13847 -6.96553,6.75966 -5.38366,8.78348 1.58187,2.02382 7.83988,2.8e-4 9.7778,-3.16195 1.70322,-2.77935 -0.2624,-5.89471 -3.15317,-5.83564 z m 22.08213,8.84492 c -0.18278,-0.002 -0.36518,0.0115 -0.54574,0.0373 -1.44446,0.20711 -2.76627,1.27589 -3.15537,3.09074 -0.77818,3.62976 2.34781,9.43698 4.88444,9.07324 2.53662,-0.36372 3.92038,-6.81756 2.16191,-10.08358 -0.76932,-1.4289 -2.06562,-2.10884 -3.34523,-2.11776 z"
         sodipodi:nodetypes="scssssscssssscsczzzcsssscccccczzzsssssssssccsssccscsscsssssssss" />
      <path
         id="path48"
         style="font-weight:bold;font-size:25.4px;font-family:BPreplay;-inkscape-font-specification:'BPreplay Bold';fill:url(#linearGradient55);fill-opacity:1;stroke:none;stroke-width:3.7;stroke-linecap:square;stroke-dasharray:none;stroke-opacity:1;paint-order:stroke fill markers"
         d="m 110.33706,85.887664 c -2.37879,-0.0107 -4.8357,1.57969 -5.14697,4.99866 v 5.2e-4 c 0.0832,1.40821 0.0297,2.04851 0.0863,3.07423 -0.0714,-0.007 -0.14124,-0.0146 -0.21394,-0.0212 -2.00804,0 -2.01574,4.01681 0,4.01681 0.1069,-0.002 0.20599,-0.004 0.31161,-0.007 -0.0247,1.38287 -0.11773,2.932186 -0.31161,5.063776 -0.0801,0.85708 0.15029,1.9219 1.94251,2.00814 1.9227,0 1.68724,-2.00814 1.68724,-2.00814 -0.17245,-1.6896 -0.25419,-3.369786 -0.27492,-5.051376 0.76463,-0.007 1.26293,0.0861 2.12235,0.26924 0.85745,0.19162 1.5412,-0.54871 1.55546,-1.74098 0.0215,-1.79721 -0.89722,-2.3195 -1.61541,-2.16369 -0.71819,0.1558 -1.19691,0.13351 -2.02003,0.0264 0.0481,-1.48651 -0.065,-1.74715 0.0315,-3.25561 0.0491,-2.76809 3.543,-2.66786 3.5016,-0.53847 0,0 -0.2656,1.90969 1.495,1.94407 1.69691,0.0331 1.52755,-2.00815 1.52755,-2.00815 0.002,-2.98528 -2.29949,-4.59682 -4.67826,-4.60747 z m -9.8428,2.43086 c -0.0786,-0.002 -0.1584,-4.4e-4 -0.23927,0.004 -1.243029,0.0623 -2.220599,0.85411 -2.144569,2.37091 0.076,1.51681 0.71863,2.22739 2.370919,2.14457 1.65229,-0.0828 2.24706,-0.83309 2.16989,-2.37246 -0.0724,-1.44318 -0.978,-2.12098 -2.15697,-2.14664 z m -25.964309,3.83232 c -0.22284,0.006 -0.45398,0.0405 -0.68885,0.10232 -1.20354,0.31704 -1.99711,1.29299 -1.61024,2.76159 0.38687,1.4686 1.16232,2.03166 2.76211,1.61024 1.59978,-0.42143 2.02715,-1.27784 1.63452,-2.76831 -0.31901,-1.211 -1.13193,-1.73054 -2.09754,-1.70584 z m 64.505099,0.90692 c -0.94599,-0.0374 -1.79073,0.46882 -2.13373,1.65417 -0.42218,1.45884 -0.0461,2.33994 1.54306,2.79983 1.58916,0.45987 2.39567,-0.0552 2.82412,-1.53583 0.42846,-1.48057 -0.32301,-2.44698 -1.56734,-2.80706 -0.22417,-0.0649 -0.44781,-0.10248 -0.66611,-0.11111 z m -38.28396,0.62787 c -0.0792,-10e-4 -0.15944,8e-5 -0.2403,0.004 -1.268399,0.0636 -2.134799,0.76018 -1.855189,2.05103 0.73428,3.38977 0.72583,4.07022 0.38861,7.755086 -0.12268,1.34059 0.78413,1.94432 2.077919,1.87947 1.31912,-0.0661 2.20853,-0.77255 1.87947,-2.07791 -0.87264,-3.461626 -1.29776,-4.084656 -0.38861,-7.755076 0.29771,-1.20193 -0.67334,-1.83564 -1.8619,-1.85674 z m -39.534029,0.0687 c -0.20498,-0.007 -0.42886,0.0139 -0.67179,0.062 -1.29564,0.25655 -2.18653,1.14135 -1.64176,2.34456 2.62279,5.792946 2.67895,10.973546 3.22254,16.270326 0.13224,1.28863 1.13586,1.76837 2.40657,1.51671 1.32064,-0.26104 1.79059,-1.02735 1.53893,-2.29805 l -1.15807,-5.84565 6.45077,4.38785 c 1.23686,0.84136 2.25086,0.66157 3.07371,-0.58756 0.82283,-1.24926 0.76834,-2.64211 -0.65319,-3.08767 -3.47501,-1.08918 -5.99648,-2.52699 -8.02897,-4.14342 l 3.43907,-5.137666 c 0.73471,-1.09758 0.57412,-1.99949 -0.52348,-2.7342 -0.83693,-0.56024 -2.52638,-0.73518 -2.7063,0.57309 -0.31421,2.28478 -1.26769,3.31206 -2.37453,4.04834 l -0.74155,-3.74344 c -0.20845,-1.05272 -0.74368,-1.59614 -1.63195,-1.62523 z m 54.007039,0.21756 c -1.17763,0.007 -2.0699,0.64553 -1.84175,1.91099 0.69393,3.84912 -0.3497,5.513786 -0.46147,7.276046 0,1.38815 0.5355,1.99384 1.82831,2.07584 1.3435,0.0852 1.99384,-0.53501 2.07583,-1.8278 l 0.18397,-2.90421 c 0.0707,-1.115356 0.75004,-2.218846 1.57096,-2.726446 0.67809,-0.41928 1.79988,-0.15104 2.36058,-0.13953 1.16606,0.074 1.84353,-0.57558 1.90945,-1.61489 0.0659,-1.0393 -0.57912,-1.84304 -2.60863,-1.94355 -1.6302,-0.0807 -2.77834,0.8672 -3.26233,1.67639 0.0249,-1.19462 -0.73036,-1.72628 -1.51618,-1.77612 -0.0808,-0.005 -0.16023,-0.007 -0.23874,-0.007 z m -18.987469,0.28215 c -0.15651,-8e-5 -0.32442,0.012 -0.50384,0.0357 -1.00727,0.13293 -1.62408,0.70085 -1.8185,1.75131 l -1.02319,6.232176 c -1.31391,-2.772906 -1.06771,-2.856266 -2.40347,-5.600686 -0.41659,-1.02107 -1.623,-1.42514 -2.42879,-1.31878 -0.88136,0.1163 -1.6423,0.75437 -1.86191,1.80816 l -1.23351,6.388236 c -0.33487,-1.6224 -1.37207,-3.983236 -2.4815,-6.000146 -0.53251,-0.92891 -1.20035,-1.32768 -2.20762,-1.19476 -1.33463,0.17614 -2.43871,1.10236 -1.67277,2.27066 0.3276,0.49969 3.01584,2.813346 4.57853,7.566456 0.52062,1.03297 1.2487,0.97106 2.30632,0.83148 1.03244,-0.13626 1.86876,-0.25572 2.0314,-1.35289 0.24248,-2.43778 0.58991,-4.23333 1.25988,-4.38371 0.66995,-0.15036 1.2772,1.14959 2.51095,3.8349 0.52394,1.05813 1.17011,0.95622 2.12701,0.82993 0.88135,-0.1163 1.70237,-0.15694 1.91202,-1.28623 1.04958,-7.470656 2.24016,-6.852986 2.41794,-8.655276 0.11563,-1.17224 -0.41334,-1.75587 -1.50895,-1.75649 z m 28.818379,1.47071 c -0.93644,-0.007 -1.59826,0.50442 -1.64331,1.57665 -0.11051,2.62941 -0.68627,2.940256 -1.29139,5.516976 0,0 -1.16931,3.31263 4.5067,4.64106 5.676,1.32844 6.16035,-2.14457 6.16035,-2.14457 0.51095,-3.1804 0.35696,-3.35587 1.29139,-5.516976 0.5242,-1.21231 -0.16708,-2.07405 -1.45314,-2.37505 -1.28603,-0.30098 -1.86992,0.25146 -2.33061,1.48932 -0.64885,1.743406 -0.68829,2.101716 -0.9617,4.107756 -0.36286,1.55042 -3.41811,0.63834 -3.09903,-0.72502 0.65622,-1.83801 0.80111,-2.15363 0.96118,-4.107756 0.10779,-1.31639 -0.16657,-2.07406 -1.45263,-2.37505 -0.24113,-0.0564 -0.47171,-0.0857 -0.68781,-0.0873 z m 21.35168,0.19896 c -0.74145,-0.0104 -1.25276,0.45325 -1.68,1.30483 l -2.0283,4.041606 c -1.02092,-0.24156 -2.03497,-0.20971 -2.42208,0.83871 -0.39589,1.07225 0.19572,1.66994 1.11363,2.11718 l -1.00097,2.32596 c -1.32541,3.07969 -1.0788,5.34146 2.32854,6.5996 1.28669,0.47507 2.20643,0.11079 2.63756,-1.05678 0.43986,-1.19138 -0.40136,-1.49664 -1.31774,-2.51716 -0.72303,-0.80518 -0.15867,-2.49723 0.71055,-4.05764 l 1.39009,0.51315 c 1.26286,0.4663 1.98165,0.35264 2.42156,-0.83871 0.45752,-1.23903 -0.0715,-1.78628 -1.33429,-2.25258 l -1.02422,-0.37827 2.0283,-4.041606 c 0.56968,-1.13506 0.24012,-1.96921 -0.99891,-2.42673 -0.3038,-0.11217 -0.57657,-0.16808 -0.82372,-0.17156 z m -70.293379,1.42007 c -0.29098,-0.0108 -0.60254,0.0265 -0.9157,0.10903 -1.2281,0.32351 -1.93275,1.18394 -1.3932,2.38952 1.41683,3.165796 1.54904,3.833286 1.97817,7.508586 0.15611,1.33712 1.16787,1.74126 2.42053,1.41128 1.27722,-0.33647 2.00168,-1.21094 1.41076,-2.42052 -1.56702,-3.20762 -2.11118,-3.72961 -1.97765,-7.508586 0.035,-0.98998 -0.64997,-1.45693 -1.52291,-1.48931 z m 61.210199,0.85834 c -0.81627,0.0184 -1.43427,0.47616 -1.55132,1.45986 -0.4099,3.444066 -0.63947,4.084896 -2.15853,7.458976 -0.55266,1.22754 0.10824,2.09351 1.35289,2.4536 1.26874,0.36715 2.33953,-0.011 2.4536,-1.35238 0.3025,-3.5571 0.10337,-4.28433 2.15853,-7.45846 0.71782,-1.108706 -0.13959,-2.076446 -1.38389,-2.436536 -0.30499,-0.0883 -0.59918,-0.1312 -0.87128,-0.12506 z"
         sodipodi:nodetypes="ccccccccccccssccccccccccscccccssscscssssccsssssccsssscccccsccssccsscscsccscsccccccccccccccsscscscscscccccscssscccccccccsccscsccscccscscsssscsscscsscs" />
      <path
         d="m 87.397591,123.6486 3.86312,-0.52336 c 1.94178,-0.26307 3.55798,-1.08566 4.79004,-2.43903 1.26741,-1.39978 1.80216,-3.13742 1.5474,-5.01788 l -0.1883,-1.3899 c -0.25476,-1.88046 -1.22979,-3.39275 -2.82672,-4.4253 -1.54774,-0.97677 -3.32178,-1.31925 -5.26356,-1.05618 l -3.86312,0.52336 c -0.8176,0.11076 -1.38306,0.85345 -1.27229,1.67104 l 1.54239,11.38496 c 0.11076,0.81759 0.85345,1.38305 1.67104,1.27229 z m 6.74624,-7.51229 c 0.12184,0.89935 -0.11382,1.61817 -0.72847,2.30507 -0.64999,0.73332 -1.5078,1.16175 -2.61155,1.31129 l -1.86002,0.25199 -1.03011,-7.6036 1.86002,-0.25199 c 1.10374,-0.14953 2.04741,0.0557 2.86908,0.58961 0.77526,0.49861 1.19367,1.1288 1.30998,1.98729 z m 6.228599,6.49686 c 2.82573,-0.16326 5.67406,-0.19097 8.55999,0.007 0.82506,6.7e-4 1.48564,-0.65884 1.4863,-1.4839 l 3.5e-4,-0.43316 c 6.7e-4,-0.82506 -0.65884,-1.48564 -1.4839,-1.48631 l -6.53859,-0.005 0.002,-2.37204 6.2042,0.004 c 0.82505,6.6e-4 1.48563,-0.65885 1.4863,-1.48391 l 3.5e-4,-0.43316 c 6.7e-4,-0.82506 -0.65884,-1.48564 -1.4839,-1.48631 l -6.2042,-0.004 0.002,-1.89764 6.53858,0.005 c 0.82506,6.7e-4 1.48565,-0.65885 1.48631,-1.48391 l 3.4e-4,-0.41253 c 6.6e-4,-0.82506 -0.65885,-1.48564 -1.48391,-1.48631 l -8.55998,-0.007 c -0.825059,-6.6e-4 -1.485649,0.65885 -1.486309,1.48391 l -0.009,11.48896 c -6.6e-4,0.82506 0.65885,1.48564 1.483909,1.48631 z m 24.1726,-12.78277 c -0.18055,-0.036 -0.31974,-0.064 -0.55143,-0.078 -0.57649,-0.0349 -1.14907,0.17078 -1.46926,0.66711 l -4.73578,7.41288 -2.49403,-8.43553 c -0.14955,-0.56278 -0.64492,-0.90937 -1.20618,-1.04555 -0.19916,-0.0483 -0.3877,-0.0701 -0.57185,-0.0809 -0.48228,-0.0283 -0.99456,0.10931 -1.34115,0.49775 -0.32327,0.37091 -0.43923,0.89614 -0.28102,1.39765 l 3.57841,12.10949 c 0.16997,0.56567 0.62649,0.94211 1.2266,1.04843 l 0.63312,0.0896 c 0.5604,0.0793 1.14907,-0.17078 1.44884,-0.67 l 6.817,-10.63907 c 0.27067,-0.44084 0.30494,-0.97763 0.0972,-1.42364 -0.20483,-0.46645 -0.58903,-0.70166 -1.15048,-0.85019 z"
         id="path49"
         style="font-size:20.6265px;font-family:Figno;-inkscape-font-specification:Figno;fill:url(#linearGradient57);fill-opacity:1;stroke-width:0.406033;stroke-linecap:square;stroke-linejoin:round;paint-order:stroke fill markers"
         aria-label="dev"
         sodipodi:nodetypes="sscsscsssssscsccscssccssccccsscccssssccccccscccssccccsccccc" />
    </g>
  </g>
  <metadata
     id="metadata1">
    <rdf:RDF>
      <cc:Work
         rdf:about="">
        <dc:title>KiwifruitDevLogo</dc:title>
        <dc:creator>
          <cc:Agent>
            <dc:title>FLARE145</dc:title>
          </cc:Agent>
        </dc:creator>
      </cc:Work>
    </rdf:RDF>
  </metadata>
</svg>
